<svg width="445" height="396" viewBox="0 0 445 396" fill="none" xmlns="http://www.w3.org/2000/svg">
<path d="M16.2641 395.245C14.2882 395.733 12.1714 395.765 10.0569 395.257C3.00982 393.563 -1.33274 386.477 0.369393 379.428L88.2397 10.0542C89.9365 3.00677 97.0313 -1.32983 104.085 0.368175C111.132 2.06211 115.475 9.14834 113.772 16.197L25.9021 385.571C24.7087 390.507 20.8751 394.11 16.2641 395.245Z" fill="url(#paint0_linear_79_1236)"/>
<path d="M101.006 13.1257C101.006 13.1257 114.009 15.2206 112.369 22.0076C110.729 28.7946 46.5914 294.608 46.5914 294.608C46.5914 294.608 48.7136 287.41 36.0791 282.988L101.006 13.1257Z" fill="#CFCFD1"/>
<path d="M388.287 146.01L398.741 102.566C407.251 103.719 414.408 104.377 421.463 105.03C426.529 105.494 439.033 106.398 444.37 107.035L433.917 150.478C428.573 149.838 416.071 148.939 411.01 148.474C403.955 147.82 396.798 147.163 388.287 146.01ZM305.819 118.373C318.878 125.531 331.316 132.009 342.428 136.098L352.882 92.6547C341.768 88.5598 329.331 82.0869 316.272 74.9292L305.819 118.373ZM230.918 80.9818C244.247 86.0152 257.061 92.1075 269.309 98.4678L279.762 55.0241C267.515 48.6638 254.699 42.5662 241.372 37.5381L230.918 80.9818ZM136.657 62.1952C151.593 63.8856 167.06 65.7768 184.062 68.7444C187.545 54.2636 191.033 39.7815 194.516 25.3007C177.514 22.3331 162.047 20.4419 147.11 18.7515L136.657 62.1952ZM90.5528 56.5694L79.5485 102.305C92.2013 104.201 104.551 105.574 117.203 106.988C120.002 107.3 122.819 107.615 125.652 107.93L136.657 62.1952C133.822 61.8741 131.012 61.5639 128.207 61.2524C115.555 59.8385 103.206 58.4659 90.5528 56.5694ZM184.062 68.7444L173.058 114.48C177.746 115.297 182.555 116.198 187.5 117.196C193.233 118.368 198.918 119.815 204.498 121.484C209.709 123.043 214.848 124.798 219.913 126.712L230.917 80.9765C225.853 79.063 220.713 77.3077 215.502 75.7489C209.921 74.075 204.237 72.633 198.504 71.4608C193.56 70.4625 188.751 69.5615 184.062 68.7444ZM269.309 98.4678L258.305 144.203C267.428 148.94 276.237 153.824 284.71 158.518C288.11 160.408 291.483 162.275 294.813 164.103L305.818 118.368C302.488 116.54 299.113 114.667 295.709 112.784C287.236 108.09 278.427 103.206 269.304 98.469M342.434 136.097L331.429 181.832C333.436 182.573 335.401 183.234 337.323 183.809C338.98 184.306 340.605 184.738 342.189 185.095C359.156 188.941 366.781 190.319 377.283 191.745L388.287 146.01C377.785 144.584 370.161 143.206 353.194 139.36C351.609 139.003 349.985 138.571 348.328 138.074C346.411 137.497 344.445 136.837 342.434 136.097ZM377.283 191.745L366.279 237.48C374.789 238.633 381.946 239.291 389.001 239.944C394.067 240.408 406.571 241.312 411.908 241.949L422.912 196.214C417.569 195.573 405.066 194.674 400.005 194.209C392.95 193.556 385.793 192.898 377.283 191.745ZM294.815 164.108L283.81 209.843C296.869 217.001 309.308 223.479 320.42 227.569L331.424 181.834C320.311 177.739 307.874 171.266 294.815 164.108ZM219.914 126.717L208.91 172.452C222.239 177.485 235.053 183.578 247.3 189.938L258.305 144.203C246.057 137.843 233.242 131.745 219.914 126.717ZM125.652 107.93L114.648 153.665C129.585 155.356 145.052 157.247 162.054 160.215L173.058 114.48C156.056 111.512 140.589 109.621 125.652 107.93ZM68.5495 148.038L57.5379 193.815C70.1908 195.711 82.5405 197.084 95.1922 198.498C97.9915 198.81 100.808 199.125 103.642 199.44L114.653 153.664C111.818 153.343 109.008 153.033 106.204 152.721C93.5533 151.313 81.2023 149.935 68.5495 148.038ZM162.054 160.215L151.042 205.991C155.73 206.808 160.54 207.709 165.484 208.707C171.217 209.879 176.902 211.327 182.482 212.995C187.693 214.554 192.833 216.309 197.897 218.223L208.908 172.447C203.844 170.533 198.705 168.778 193.493 167.219C187.912 165.545 182.228 164.103 176.496 162.931C171.551 161.933 166.742 161.032 162.054 160.215ZM247.3 189.938L236.289 235.714C245.412 240.451 254.221 245.336 262.694 250.029C266.094 251.919 269.467 253.787 272.804 255.618L283.816 209.842C280.486 208.014 277.111 206.141 273.706 204.259C265.234 199.565 256.425 194.681 247.302 189.943M320.425 227.567L309.414 273.344C311.42 274.084 313.385 274.745 315.307 275.32C316.964 275.817 318.589 276.249 320.174 276.606C337.14 280.452 344.765 281.831 355.267 283.256L366.279 237.48C355.777 236.055 348.152 234.676 331.185 230.83C329.601 230.473 327.976 230.041 326.319 229.544C324.402 228.967 322.437 228.307 320.425 227.567ZM355.267 283.256L344.263 328.991C352.773 330.145 359.93 330.802 366.985 331.455C372.051 331.92 384.555 332.824 389.892 333.46L400.896 287.725C395.553 287.084 383.05 286.186 377.99 285.72C370.935 285.067 363.777 284.409 355.267 283.256ZM272.797 255.614L261.793 301.349C274.852 308.507 287.291 314.985 298.403 319.075L309.407 273.34C298.294 269.245 285.857 262.772 272.797 255.614ZM197.898 218.228L186.894 263.963C200.223 268.997 213.037 275.089 225.285 281.449L236.289 235.714C224.041 229.354 211.226 223.256 197.898 218.228ZM103.636 199.442L92.6321 245.177C107.569 246.867 123.036 248.758 140.038 251.726L151.042 205.991C134.04 203.023 118.573 201.132 103.636 199.442ZM36.0791 282.988C48.7319 284.884 61.0817 286.257 73.7334 287.671C76.5326 287.984 79.3491 288.298 82.1829 288.614C85.6655 274.133 89.1494 259.658 92.6321 245.177C89.7971 244.856 86.9872 244.545 84.1826 244.234C71.5309 242.82 59.1811 241.447 46.5282 239.551L36.0791 282.988ZM129.589 295.163C134.277 295.98 139.086 296.881 144.03 297.879C149.763 299.052 155.448 300.499 161.028 302.167C166.24 303.726 171.379 305.482 176.443 307.395L186.892 263.958C181.828 262.045 176.689 260.289 171.478 258.73C165.896 257.057 160.212 255.615 154.48 254.442C149.535 253.444 144.726 252.543 140.038 251.726L129.589 295.163ZM214.835 324.886C223.959 329.624 232.768 334.508 241.24 339.202C244.641 341.091 248.014 342.959 251.349 344.785L261.798 301.348C258.469 299.52 255.094 297.647 251.695 295.763C243.222 291.069 234.413 286.185 225.29 281.448L214.841 324.885M287.96 362.516C289.966 363.257 291.931 363.917 293.854 364.492C295.511 364.99 297.135 365.421 298.72 365.779C315.687 369.625 323.312 371.003 333.814 372.429L344.263 328.991C333.761 327.566 326.136 326.188 309.169 322.341C307.585 321.984 305.96 321.552 304.303 321.055C302.386 320.479 300.421 319.818 298.409 319.079C294.927 333.56 291.443 348.035 287.96 362.516Z" fill="#1D347E"/>
<path d="M342.434 136.097L352.887 92.6535C354.893 93.3942 356.858 94.0548 358.781 94.63C360.438 95.1273 362.062 95.5591 363.647 95.9162C380.247 99.6857 388.109 101.115 398.741 102.566L388.287 146.01C377.785 144.584 370.161 143.206 353.194 139.36C351.609 139.003 349.985 138.571 348.328 138.074C346.411 137.497 344.445 136.837 342.434 136.097ZM269.309 98.4678C278.432 103.205 287.242 108.089 295.714 112.783C299.115 114.672 302.488 116.54 305.823 118.366L316.276 74.9227C312.946 73.0952 309.572 71.2221 306.166 69.334C297.694 64.6401 288.884 59.756 279.761 55.0188L269.308 98.4625M184.062 68.7444C188.751 69.5615 193.56 70.4625 198.504 71.4608C204.237 72.633 209.922 74.0803 215.502 75.7489C220.713 77.3077 225.853 79.063 230.917 80.9765L241.37 37.5328C236.306 35.6193 231.167 33.864 225.955 32.3052C220.374 30.6313 214.69 29.1893 208.957 28.0172C204.013 27.0188 199.204 26.1178 194.516 25.3007C191.033 39.7815 187.545 54.2636 184.062 68.7444ZM90.5528 56.5694C103.206 58.4659 115.555 59.8385 128.207 61.2524C131.006 61.5651 133.823 61.8794 136.657 62.1952L147.11 18.7515C144.275 18.4304 141.465 18.1202 138.66 17.8087C126.009 16.3948 113.659 15.0222 101.006 13.1257L90.5528 56.5694ZM136.657 62.1952L125.652 107.93C140.589 109.621 156.056 111.512 173.058 114.48L184.062 68.7444C167.06 65.7768 151.593 63.8856 136.657 62.1952ZM230.918 80.9818L219.914 126.717C233.243 131.75 246.057 137.843 258.305 144.203L269.309 98.4678C257.061 92.1075 244.246 86.0098 230.918 80.9818ZM305.819 118.373L294.815 164.108C307.874 171.266 320.312 177.744 331.424 181.834L342.428 136.098C331.315 132.004 318.878 125.531 305.819 118.373ZM388.287 146.01L377.283 191.745C385.793 192.898 392.95 193.556 400.005 194.209C405.072 194.673 417.575 195.577 422.912 196.214L433.917 150.478C428.573 149.838 416.071 148.939 411.01 148.474C403.955 147.82 396.798 147.163 388.287 146.01ZM331.429 181.832L320.425 227.567C322.431 228.308 324.397 228.969 326.319 229.544C327.976 230.041 329.601 230.473 331.185 230.83C348.152 234.676 355.777 236.055 366.279 237.48L377.283 191.745C366.781 190.319 359.156 188.941 342.189 185.095C340.605 184.738 338.98 184.306 337.323 183.809C335.406 183.232 333.441 182.572 331.429 181.832ZM258.305 144.203L247.3 189.938C256.424 194.675 265.233 199.559 273.705 204.253C277.106 206.143 280.479 208.01 283.816 209.842L294.82 164.107C291.49 162.279 288.116 160.406 284.711 158.523C276.239 153.83 267.429 148.945 258.306 144.208M173.058 114.48L162.054 160.215C166.742 161.032 171.551 161.933 176.496 162.931C182.228 164.103 187.914 165.551 193.493 167.219C198.705 168.778 203.844 170.533 208.908 172.447L219.913 126.712C214.848 124.798 209.709 123.043 204.498 121.484C198.917 119.81 193.233 118.368 187.5 117.196C182.555 116.198 177.746 115.297 173.058 114.48ZM79.5485 102.305L68.5441 148.04C81.197 149.936 93.5467 151.309 106.198 152.723C108.998 153.035 111.814 153.35 114.648 153.665L125.652 107.93C122.817 107.609 120.007 107.299 117.203 106.988C104.552 105.579 92.2013 104.201 79.5485 102.305ZM114.653 153.664L103.642 199.44C118.578 201.131 134.046 203.022 151.047 205.99L162.059 160.213C145.057 157.246 129.59 155.355 114.653 153.664ZM208.91 172.452L197.898 218.228C211.227 223.262 224.041 229.354 236.289 235.714L247.3 189.938C235.053 183.578 222.238 177.48 208.91 172.452ZM283.816 209.842L272.804 255.618C285.863 262.776 298.302 269.254 309.414 273.344L320.425 227.567C309.312 223.473 296.875 217 283.816 209.842ZM366.279 237.48L355.267 283.256C363.777 284.409 370.935 285.067 377.99 285.72C383.056 286.184 395.559 287.088 400.896 287.725L411.908 241.949C406.564 241.308 394.062 240.41 389.001 239.944C381.946 239.291 374.789 238.633 366.279 237.48ZM309.414 273.344L298.409 319.079C300.416 319.819 302.381 320.48 304.303 321.055C305.96 321.552 307.585 321.984 309.169 322.341C326.136 326.188 333.761 327.566 344.263 328.991L355.267 283.256C344.765 281.831 337.14 280.452 320.174 276.606C318.589 276.249 316.964 275.817 315.307 275.32C313.39 274.744 311.425 274.083 309.414 273.344ZM236.289 235.714L225.285 281.449C234.408 286.187 243.217 291.071 251.689 295.765C255.09 297.654 258.463 299.522 261.793 301.349L272.797 255.614C269.468 253.787 266.093 251.913 262.688 250.031C254.216 245.337 245.407 240.453 236.284 235.715M151.042 205.991L140.038 251.726C144.726 252.543 149.535 253.444 154.48 254.442C160.212 255.615 165.898 257.062 171.478 258.73C176.689 260.289 181.828 262.045 186.892 263.958L197.897 218.223C192.833 216.309 187.693 214.554 182.482 212.995C176.901 211.321 171.217 209.879 165.484 208.707C160.54 207.709 155.73 206.808 151.042 205.991ZM57.5379 193.815L46.5336 239.55C59.1864 241.446 71.5362 242.819 84.1879 244.233C86.9871 244.545 89.8036 244.86 92.6374 245.175L103.642 199.44C100.807 199.119 97.9968 198.809 95.1922 198.498C82.5405 197.084 70.1908 195.711 57.5379 193.815ZM82.1829 288.614C97.1195 290.304 112.587 292.195 129.589 295.163L140.038 251.726C123.036 248.758 107.569 246.867 92.6321 245.177C89.1494 259.658 85.6655 274.133 82.1829 288.614ZM176.445 307.4C189.774 312.434 202.588 318.526 214.835 324.886L225.285 281.449C213.037 275.089 200.222 268.991 186.894 263.963L176.445 307.4ZM251.345 344.792C264.404 351.949 276.843 358.427 287.955 362.517C291.437 348.036 294.921 333.561 298.404 319.08C287.291 314.985 274.853 308.512 261.794 301.354L251.345 344.792ZM333.814 372.429C342.324 373.582 349.481 374.239 356.536 374.892C361.602 375.357 374.106 376.261 379.443 376.897L389.892 333.46C384.548 332.82 372.046 331.921 366.985 331.455C359.93 330.802 352.773 330.145 344.263 328.991L333.814 372.429Z" fill="url(#paint1_linear_79_1236)"/>
<path d="M101.006 13.1257C101.006 13.1257 88.2861 9.8693 86.646 16.6563C85.006 23.4434 20.9982 288.71 20.9982 288.71C20.9982 288.71 22.816 281.173 36.0791 282.988L101.006 13.1257Z" fill="url(#paint2_linear_79_1236)"/>
<path d="M136.389 61.0566C123.262 106.657 111.025 156.04 100.476 212.594C149.808 204.114 206.95 228.799 263.971 252.997C273.638 257.752 293.584 269.101 303.62 271.366C321.818 277.792 339.811 283.345 357.327 286.876C358.488 281.207 359.633 275.491 360.773 269.731C364.856 241.538 370.742 219.237 378.518 188.658C381.894 174.944 385.158 160.75 388.287 146.01C387.311 146.302 386.337 146.581 385.354 146.846C372.422 144.959 359.033 141.153 345.31 135.903C314.429 123.557 281.849 103.99 248.854 82.6628C245.402 80.9146 240.762 80.4229 233.309 79.9644C200.657 72.2009 167.782 63.4678 136.389 61.0566Z" fill="#1D347E"/>
<path d="M129.734 170.487C128.261 174.736 124.853 177.784 121.687 177.776C119.847 177.766 118.884 176.779 118.912 174.965C117.745 177.457 116.587 179.987 115.441 182.542C115.007 182.56 114.579 182.582 114.146 182.605C116.869 176.501 119.63 170.585 122.437 164.843C122.856 164.856 123.275 164.87 123.701 164.888C123.369 165.555 123.043 166.222 122.712 166.895C124.087 165.572 125.648 164.873 127.239 164.971C129.761 165.135 130.859 167.246 129.734 170.487ZM128.358 170.491C129.192 168.065 128.506 166.536 126.455 166.418C124.012 166.28 121.41 168.717 120.271 172.236C119.459 174.758 120.141 176.22 122.168 176.237C124.584 176.258 127.196 173.864 128.358 170.491Z" fill="white"/>
<path d="M130.566 172.711C132.018 168.49 135.504 165.631 138.866 166.069C141.637 166.428 142.688 168.624 141.554 171.687C140.053 175.746 136.547 178.519 133.229 178.272C130.489 178.069 129.472 175.894 130.566 172.711ZM140.174 171.601C141.031 169.272 140.345 167.72 138.256 167.465C135.773 167.157 133.088 169.383 131.922 172.74C131.085 175.155 131.773 176.644 133.835 176.81C136.293 177.012 138.98 174.841 140.168 171.603L140.174 171.601Z" fill="white"/>
<path d="M156.225 169.071C154.04 172.707 151.87 176.407 149.717 180.176C149.284 180.104 148.852 180.037 148.414 179.966C148.761 179.362 149.102 178.76 149.449 178.156C147.953 179.345 146.365 179.763 144.82 179.548C142.573 179.24 141.799 177.626 142.703 175.184C142.86 174.754 143.058 174.331 143.309 173.868C144.529 171.672 145.748 169.498 146.978 167.344C147.434 167.417 147.885 167.496 148.342 167.574C147.108 169.711 145.88 171.87 144.663 174.055C144.464 174.427 144.3 174.758 144.177 175.095C143.54 176.806 144.012 177.908 145.723 178.157C147.842 178.467 149.84 177.334 151.355 174.743C152.518 172.734 153.681 170.753 154.854 168.787C155.313 168.876 155.768 168.971 156.229 169.064L156.225 169.071Z" fill="white"/>
<path d="M165.289 171.003C165.004 171.463 164.72 171.929 164.431 172.396C164.295 172.366 164.205 172.32 164.05 172.283C161.867 171.769 159.857 172.804 158.225 175.518C157.119 177.362 156.01 179.217 154.912 181.093C154.454 181.01 154.001 180.925 153.543 180.842C155.704 177.128 157.88 173.477 160.072 169.895C160.511 169.994 160.95 170.093 161.394 170.19C160.998 170.845 160.606 171.499 160.21 172.154C161.72 170.883 163.331 170.538 165.289 171.003Z" fill="white"/>
<path d="M178.307 174.426C178.018 174.87 177.729 175.314 177.435 175.759C177.296 175.719 177.206 175.673 177.05 175.631C174.843 175.016 172.807 175.939 171.145 178.525C170.019 180.284 168.891 182.06 167.771 183.845C167.313 183.734 166.848 183.624 166.385 183.52C168.586 179.975 170.802 176.495 173.03 173.067C173.474 173.188 173.919 173.308 174.368 173.426C173.965 174.055 173.566 174.676 173.165 175.31C174.698 174.135 176.327 173.87 178.307 174.426Z" fill="white"/>
<path d="M177.439 180.745C177.36 180.887 177.297 181.025 177.235 181.169C176.309 183.324 176.966 184.848 179.346 185.506C180.723 185.89 182.188 185.736 183.327 185.131C183.389 185.538 183.444 185.94 183.506 186.347C182.099 187.054 180.284 187.2 178.669 186.761C175.678 185.943 174.615 183.694 175.829 180.854C177.407 177.17 181.006 175.172 184.339 176.179C187.098 177.012 188.14 179.22 186.882 182.015C186.683 182.461 186.427 182.88 186.173 183.254C183.253 182.381 180.34 181.539 177.443 180.738L177.439 180.745ZM178.048 179.703C180.513 180.386 182.98 181.103 185.459 181.845C185.54 181.713 185.596 181.593 185.646 181.469C186.541 179.468 185.702 177.958 183.762 177.381C181.665 176.757 179.488 177.702 178.048 179.703ZM185.796 174.893C185.305 174.744 184.815 174.595 184.33 174.446C185.707 173.92 187.08 173.4 188.462 172.895C189.105 173.098 189.748 173.3 190.392 173.502C188.857 173.953 187.33 174.414 185.801 174.891L185.796 174.893Z" fill="white"/>
<path d="M202.297 182.038C200.002 185.205 197.716 188.411 195.438 191.653C194.988 191.506 194.533 191.366 194.084 191.225C194.447 190.713 194.81 190.2 195.167 189.69C193.673 190.457 191.989 190.679 190.299 190.161C187.617 189.344 186.511 187.105 187.754 184.314C189.361 180.707 193.056 178.878 196.474 180.005C198.472 180.663 199.496 181.933 199.435 183.559C199.912 182.891 200.391 182.228 200.875 181.558C201.35 181.716 201.821 181.88 202.297 182.038ZM197.928 185.587C198.859 183.571 198.153 181.957 195.96 181.238C193.348 180.381 190.48 181.831 189.196 184.688C188.276 186.746 188.985 188.326 191.166 188.997C193.766 189.8 196.632 188.39 197.923 185.588L197.928 185.587Z" fill="white"/>
<path d="M209.106 179.543C209.584 179.711 210.056 179.88 210.534 180.049C207.28 184.442 204.037 188.883 200.811 193.398C200.336 193.241 199.867 193.087 199.391 192.929C202.613 188.398 205.853 183.941 209.104 179.537L209.106 179.543Z" fill="white"/>
<path d="M211.656 185.293C212.134 185.461 212.606 185.631 213.084 185.799C210.781 188.907 208.484 192.042 206.194 195.209C205.717 195.046 205.247 194.887 204.771 194.724C207.058 191.546 209.354 188.406 211.655 185.288L211.656 185.293ZM213.502 182.321C213.777 181.745 214.456 181.456 215.102 181.692C215.667 181.895 215.893 182.449 215.674 182.905C215.379 183.513 214.681 183.795 214.037 183.565C213.472 183.361 213.271 182.796 213.502 182.321Z" fill="white"/>
<path d="M209.58 195.052C209.98 194.772 210.376 194.494 210.775 194.209C211.258 195.162 212.451 196.1 213.898 196.613C215.927 197.332 217.353 197.063 217.892 195.937C218.986 193.658 212.24 193.078 213.867 189.675C214.782 187.758 217.181 187.182 219.961 188.201C221.307 188.693 222.567 189.581 223.098 190.45C222.721 190.736 222.344 191.021 221.968 191.311C221.428 190.422 220.368 189.717 219.28 189.322C217.325 188.608 215.862 188.958 215.337 190.047C214.215 192.372 220.978 192.954 219.37 196.297C218.415 198.279 215.996 198.747 213.183 197.753C211.454 197.143 210.057 196.052 209.573 195.048L209.58 195.052Z" fill="white"/>
<path d="M223.558 195.94C223.475 196.067 223.411 196.2 223.347 196.333C222.383 198.328 223.048 199.89 225.485 200.787C226.895 201.309 228.401 201.309 229.563 200.827C229.624 201.229 229.679 201.631 229.74 202.032C228.298 202.591 226.438 202.545 224.784 201.941C221.72 200.814 220.637 198.503 221.907 195.874C223.551 192.472 227.247 190.889 230.645 192.167C233.456 193.224 234.508 195.475 233.212 198.11C233.007 198.529 232.744 198.916 232.483 199.264C229.506 198.146 226.53 197.038 223.564 195.944L223.558 195.94ZM224.188 194.989C226.711 195.917 229.232 196.863 231.758 197.807C231.842 197.686 231.899 197.571 231.951 197.458C232.874 195.573 232.026 194.026 230.048 193.285C227.908 192.48 225.676 193.19 224.188 194.989Z" fill="white"/>
<path d="M244.565 197.443C244.265 197.84 243.966 198.241 243.66 198.639C243.518 198.582 243.426 198.526 243.266 198.468C241 197.603 238.893 198.228 237.155 200.49C235.977 202.025 234.794 203.566 233.618 205.112C233.137 204.933 232.662 204.753 232.182 204.574C234.5 201.53 236.821 198.496 239.143 195.468C239.6 195.641 240.057 195.815 240.52 195.992C240.099 196.546 239.685 197.103 239.265 197.657C240.854 196.722 242.539 196.668 244.565 197.443Z" fill="white"/>
<path d="M261.524 204.003C257.629 206.436 253.723 208.849 249.824 211.265C249.33 211.078 248.842 210.89 248.348 210.703C249.092 207.08 249.841 203.456 250.586 199.839C251.067 200.023 251.542 200.204 252.024 200.388C251.373 203.472 250.723 206.562 250.072 209.646C253.39 207.579 256.715 205.517 260.031 203.439C260.532 203.63 261.03 203.816 261.525 204.009L261.524 204.003Z" fill="white"/>
<path d="M258.2 209.603C259.854 206.244 263.654 204.72 267.23 206.063C270.177 207.172 271.258 209.495 270.007 212.064C268.351 215.463 264.552 216.991 260.972 215.627C258.015 214.504 256.951 212.132 258.2 209.603ZM268.538 211.601C269.487 209.659 268.777 208.029 266.557 207.193C263.912 206.198 260.988 207.409 259.663 210.09C258.712 212.021 259.43 213.637 261.652 214.484C264.301 215.495 267.217 214.298 268.533 211.602L268.538 211.601Z" fill="white"/>
<path d="M268.384 217.011C268.788 216.747 269.186 216.479 269.591 216.216C270.076 217.18 271.275 218.144 272.735 218.688C274.774 219.449 276.204 219.196 276.745 218.081C277.845 215.829 271.076 215.147 272.712 211.781C273.632 209.891 276.034 209.348 278.819 210.366C280.171 210.857 281.424 211.741 281.953 212.605C281.578 212.895 281.202 213.186 280.825 213.471C280.285 212.582 279.226 211.882 278.137 211.481C276.182 210.768 274.714 211.096 274.187 212.175C273.062 214.489 279.84 215.135 278.226 218.451C277.268 220.423 274.843 220.864 272.015 219.806C270.276 219.154 268.87 218.025 268.384 217.011Z" fill="white"/>
<path d="M298.781 222.379C297.139 225.91 293.41 227.591 289.956 226.359C287.95 225.647 286.915 224.352 286.987 222.723C285.656 224.519 284.323 226.304 282.993 228.082C282.514 227.908 282.04 227.734 281.561 227.56C284.73 223.355 287.885 219.109 291.031 214.809C291.484 214.966 291.937 215.124 292.395 215.28C292.025 215.782 291.66 216.284 291.289 216.787C292.803 216.054 294.501 215.918 296.2 216.496C298.898 217.405 300.033 219.676 298.78 222.374L298.781 222.379ZM297.308 221.968C298.241 219.963 297.536 218.354 295.336 217.603C292.715 216.709 289.849 218.024 288.531 220.782C287.59 222.755 288.306 224.361 290.513 225.145C293.143 226.076 296.006 224.75 297.308 221.968Z" fill="white"/>
<path d="M309.924 220.964C309.633 221.398 309.34 221.826 309.049 222.26C308.909 222.214 308.818 222.162 308.661 222.115C306.434 221.415 304.365 222.2 302.658 224.595C301.5 226.22 300.336 227.842 299.175 229.451C298.7 229.294 298.228 229.129 297.752 228.967C300.041 225.8 302.325 222.607 304.598 219.371C305.049 219.518 305.498 219.659 305.953 219.804C305.548 220.4 305.138 220.996 304.731 221.586C306.292 220.528 307.947 220.346 309.93 220.963L309.924 220.964Z" fill="white"/>
<path d="M307.4 227.241C309.013 223.706 312.733 221.842 316.233 222.866C319.118 223.709 320.185 225.973 318.978 228.728C317.381 232.377 313.672 234.289 310.148 233.164C307.239 232.242 306.183 229.902 307.4 227.241ZM317.541 228.398C318.456 226.318 317.756 224.725 315.581 224.081C312.989 223.315 310.129 224.796 308.839 227.626C307.914 229.664 308.625 231.254 310.811 231.946C313.416 232.771 316.265 231.287 317.535 228.399L317.541 228.398Z" fill="white"/>
<path d="M312.126 237.437C312.512 237.144 312.892 236.847 313.277 236.549C313.513 237.027 313.989 237.381 314.602 237.573C315.735 237.919 316.677 237.529 317.578 236.199C320.001 232.642 322.417 229.036 324.813 225.367C325.281 225.493 325.743 225.614 326.211 225.74C323.811 229.443 321.396 233.078 318.963 236.665C317.599 238.676 315.979 239.389 314.028 238.787C313.131 238.509 312.449 238.024 312.116 237.445L312.126 237.437ZM326.582 222.11C326.846 221.491 327.503 221.107 328.131 221.268C328.681 221.408 328.903 221.945 328.696 222.449C328.414 223.116 327.734 223.495 327.104 223.329C326.554 223.188 326.361 222.628 326.576 222.111L326.582 222.11Z" fill="white"/>
<path d="M326.864 232.409C326.785 232.551 326.723 232.694 326.661 232.838C325.735 234.993 326.394 236.528 328.769 237.16C330.141 237.522 331.599 237.319 332.719 236.657C332.781 237.064 332.838 237.471 332.9 237.878C331.51 238.66 329.708 238.859 328.095 238.43C325.107 237.623 324.039 235.353 325.257 232.528C326.839 228.866 330.411 226.751 333.689 227.523C336.401 228.16 337.43 230.31 336.211 233.275C336.023 233.74 335.77 234.193 335.521 234.594C332.646 233.911 329.761 233.187 326.87 232.413L326.864 232.409ZM327.469 231.351C329.925 231.997 332.369 232.612 334.81 233.195C334.889 233.052 334.944 232.927 334.993 232.803C335.863 230.695 335.036 229.233 333.123 228.774C331.056 228.278 328.902 229.318 327.469 231.351Z" fill="white"/>
<path d="M338.888 237.317C338.748 237.557 338.61 237.786 338.525 237.997C338.136 238.948 338.406 239.592 339.398 239.819C339.961 239.945 340.586 239.876 341.206 239.596C341.161 240.005 341.112 240.415 341.066 240.819C340.213 241.205 339.275 241.207 338.496 241.025C336.956 240.668 336.392 239.487 337.05 237.912C337.165 237.638 337.304 237.347 337.485 237.063C338.78 234.972 340.069 232.855 341.354 230.723C340.751 230.595 340.153 230.466 339.55 230.339C339.796 229.927 340.037 229.517 340.281 229.1C340.89 229.226 341.493 229.354 342.102 229.48C342.577 228.683 343.058 227.885 343.533 227.082C343.992 227.171 344.446 227.261 344.905 227.349C344.432 228.157 343.952 228.96 343.476 229.757C344.508 229.964 345.538 230.159 346.561 230.351C346.312 230.774 346.068 231.191 345.819 231.615C344.789 231.419 343.757 231.213 342.73 231.005C341.455 233.13 340.179 235.233 338.893 237.315L338.888 237.317Z" fill="white"/>
<path d="M342.611 240.455C342.994 240.101 343.371 239.749 343.755 239.394C344.227 240.305 345.383 241.083 346.774 241.357C348.724 241.74 350.079 241.169 350.577 239.872C351.597 237.28 345.158 238.003 346.672 234.12C347.526 231.943 349.805 230.857 352.445 231.28C353.723 231.484 354.922 232.112 355.432 232.896C355.082 233.293 354.731 233.69 354.381 234.087C353.859 233.277 352.85 232.79 351.815 232.618C349.957 232.314 348.567 232.978 348.079 234.222C347.042 236.908 353.475 236.091 351.987 239.939C351.104 242.23 348.809 243.225 346.101 242.677C344.438 242.344 343.08 241.423 342.606 240.462L342.611 240.455Z" fill="white"/>
<path d="M164.954 108.34C156.608 121.478 148.418 135.298 140.481 150.17C136.1 149.606 131.753 149.191 127.446 148.941C133.21 137.231 139.135 126.179 145.174 115.634C142.916 115.21 140.66 114.82 138.418 114.461C140.468 110.778 142.532 107.153 144.611 103.593C151.335 104.919 158.119 106.523 164.959 108.339L164.954 108.34Z" fill="#F7E939"/>
<path d="M154.816 135.213C161.036 118.774 174.991 109.847 187.806 114.03C197.393 117.131 201.184 124.908 196.841 134.729C190.257 149.62 176.197 158.105 163.731 155.401C154.398 153.38 150.716 146.066 154.816 135.213ZM182.932 130.742C184.629 126.754 183.722 125.048 181.743 124.446C176.968 122.976 170.684 132.383 168.45 137.984C166.783 142.122 167.69 143.806 169.643 144.296C174.344 145.452 180.638 136.088 182.932 130.742Z" fill="#F7E939"/>
<path d="M202.39 148.472C208.959 133.517 223.288 126.176 236.214 130.832C245.887 134.3 249.678 142.078 245.289 151.702C238.635 166.294 224.281 173.529 211.436 169.218C201.822 166 198.058 158.34 202.39 148.472ZM231.214 147.035C232.953 143.223 232.037 141.479 230.03 140.76C225.191 139.018 218.727 147.659 216.397 152.851C214.662 156.702 215.582 158.439 217.583 159.131C222.403 160.798 228.87 152.168 231.214 147.035Z" fill="#F7E939"/>
<path d="M242.837 163.065C249.499 148.504 263.823 141.141 276.611 145.213C286.182 148.25 289.934 155.857 285.638 165.88C279.123 181.063 264.841 188.601 251.912 183.934C242.238 180.461 238.444 172.673 242.832 163.066L242.837 163.065ZM271.685 161.729C273.406 157.843 272.494 156.115 270.5 155.45C265.695 153.851 259.247 162.561 256.906 167.705C255.164 171.529 256.085 173.272 258.091 173.985C262.926 175.711 269.369 166.979 271.685 161.729Z" fill="#F7E939"/>
<path d="M283.533 177.162C290.104 162.218 304.134 153.605 316.569 156.176C325.878 158.096 329.554 165.384 325.472 176.316C319.28 192.872 305.36 201.948 292.562 197.834C282.986 194.781 279.197 187.014 283.527 177.163L283.533 177.162ZM311.876 173.682C313.532 169.519 312.632 167.844 310.683 167.37C305.992 166.256 299.715 175.69 297.427 181.063C295.733 185.066 296.642 186.778 298.618 187.363C303.385 188.802 309.651 179.32 311.876 173.682Z" fill="#F7E939"/>
<path d="M359.624 196.804C360.887 199.377 362.148 201.943 363.415 204.509C357.764 210.179 352.42 211.566 346.549 210.763C337.976 209.512 333.725 203.387 335.048 195.658C333.207 195.334 331.366 194.986 329.515 194.619C330.574 192.792 331.625 190.95 332.677 189.091C334.085 189.344 335.496 189.584 336.899 189.816C337.07 189.349 337.266 188.938 337.53 188.482C336.175 188.268 334.813 188.044 333.452 187.802C334.498 185.939 335.543 184.054 336.581 182.159C338.074 182.391 339.564 182.608 341.049 182.803C346.806 175.457 355.207 170.819 363.584 170.667C369.462 170.569 373.344 173.093 374.009 178.309C370.795 181.132 367.544 183.795 364.263 186.308C363.861 183.331 362.37 181.627 359.531 181.553C357.268 181.491 355.03 182.394 352.969 184.046C355.656 184.24 358.333 184.368 360.99 184.433C359.996 186.537 359 188.613 357.996 190.674C354.799 190.511 351.585 190.251 348.347 189.912C348.109 190.333 347.897 190.816 347.683 191.293C350.892 191.65 354.086 191.92 357.254 192.106C356.247 194.157 355.241 196.185 354.225 198.198C351.772 197.995 349.3 197.735 346.824 197.436C347.365 199.279 348.888 200.476 351.146 200.708C353.629 200.966 356.437 199.93 359.627 196.815L359.624 196.804Z" fill="#F7E939"/>
<defs>
<linearGradient id="paint0_linear_79_1236" x1="247.052" y1="203.775" x2="215.316" y2="170.424" gradientUnits="userSpaceOnUse">
<stop offset="0.26" stop-color="#4F5457"/>
<stop offset="0.42" stop-color="#909294"/>
<stop offset="0.55" stop-color="#C0C0C1"/>
<stop offset="0.65" stop-color="#DDDDDD"/>
<stop offset="0.71" stop-color="#E9E8E8"/>
<stop offset="0.9" stop-color="#DFDFE0"/>
<stop offset="1" stop-color="#B0B1B3"/>
</linearGradient>
<linearGradient id="paint1_linear_79_1236" x1="44.2021" y1="113.479" x2="365.69" y2="320.445" gradientUnits="userSpaceOnUse">
<stop stop-color="#F5F6F6"/>
<stop offset="0.11" stop-color="#F1F2F2"/>
<stop offset="0.18" stop-color="#ECECED"/>
<stop offset="0.21" stop-color="#F4F4F4"/>
<stop offset="0.25" stop-color="#FCFCFC"/>
<stop offset="0.33" stop-color="white"/>
<stop offset="0.42" stop-color="#FCFCFC"/>
<stop offset="0.47" stop-color="#F5F5F5"/>
<stop offset="0.5" stop-color="#E8E8E9"/>
<stop offset="0.53" stop-color="#CFCFD1"/>
<stop offset="0.68" stop-color="#D8D9DA"/>
<stop offset="0.82" stop-color="white"/>
<stop offset="1" stop-color="#F0F0F0"/>
</linearGradient>
<linearGradient id="paint2_linear_79_1236" x1="203.512" y1="195.239" x2="227.568" y2="219.527" gradientUnits="userSpaceOnUse">
<stop stop-color="#ECECED"/>
<stop offset="0.02" stop-color="#F4F4F4"/>
<stop offset="0.06" stop-color="#FCFCFC"/>
<stop offset="0.13" stop-color="white"/>
<stop offset="1" stop-color="#CFCFD1"/>
</linearGradient>
</defs>
</svg>
